<?xml version="1.0" encoding="UTF-8" standalone="no"?>
<svg width="618px" height="155px" viewBox="0 0 618 155" version="1.1" xmlns="http://www.w3.org/2000/svg" xmlns:xlink="http://www.w3.org/1999/xlink">
    <!-- Generator: Sketch 3.8.3 (29802) - http://www.bohemiancoding.com/sketch -->
    <title>logo_hacklab</title>
    <desc>Created with Sketch.</desc>
    <defs></defs>
    <g id="Page-1" stroke="none" stroke-width="1" fill="none" fill-rule="evenodd">
        <g id="logo_hacklab">
            <path d="M24.38,123 L42.668,123 L42.668,89.304 C42.668,85.848 42.956,82.68 43.82,79.8 C46.556,70.872 54.044,64.536 63.692,64.536 C72.908,64.536 75.356,70.584 75.356,79.512 L75.356,113.208 C75.356,120.12 78.236,123 85.004,123 L102.428,123 L102.428,107.592 L96.668,107.592 C94.652,107.592 93.5,106.44 93.5,104.424 L93.5,75.768 C93.5,56.328 84.284,47.832 67.868,47.832 C55.196,47.832 46.124,55.32 42.668,62.376 L42.38,62.376 C42.38,62.376 42.668,59.784 42.668,56.184 L42.668,30.408 C42.668,23.784 39.644,20.76 32.876,20.76 L15.452,20.76 L15.452,36.312 L21.212,36.312 C23.228,36.312 24.38,37.32 24.38,39.48 L24.38,123 Z M109.916,101.832 C109.916,116.52 121.868,124.728 134.972,124.728 C151.532,124.728 157.148,111.768 157.148,111.768 L157.436,111.768 C157.436,111.768 157.292,113.064 157.292,114.936 C157.292,119.256 159.884,123 166.652,123 L183.068,123 L183.068,107.592 L177.308,107.592 C175.292,107.592 174.14,106.44 174.14,104.424 L174.14,77.064 C174.14,60.648 166.94,47.832 142.46,47.832 C134.828,47.832 115.532,49.272 115.532,62.952 L115.532,70.728 L132.524,70.728 L132.524,66.84 C132.524,62.808 139.004,61.944 142.316,61.944 C151.676,61.944 155.852,65.832 155.852,76.344 L155.852,76.92 L153.548,76.92 C141.596,76.92 109.916,78.792 109.916,101.832 L109.916,101.832 Z M128.348,100.968 C128.348,90.744 143.468,89.448 152.972,89.448 L156.14,89.448 L156.14,91.176 C156.14,100.104 149.228,110.472 139.436,110.472 C131.948,110.472 128.348,105.864 128.348,100.968 L128.348,100.968 Z M190.412,86.28 C190.412,107.592 205.964,124.728 230.156,124.728 C250.172,124.728 261.116,111.48 261.116,111.48 L253.484,98.808 C253.484,98.808 244.268,108.744 231.74,108.744 C219.932,108.744 208.844,101.112 208.844,86.136 C208.844,72.888 217.916,63.24 230.588,63.24 C235.052,63.24 241.1,64.968 241.1,69 L241.1,73.032 L257.228,73.032 L257.228,64.392 C257.228,51.72 240.092,47.832 230.588,47.832 C205.388,47.832 190.412,65.544 190.412,86.28 L190.412,86.28 Z M274.22,123 L292.508,123 L292.508,90.888 L296.54,90.888 C298.844,90.888 301.868,91.032 303.308,93.624 L315.548,116.664 C318.428,121.992 320.876,123 327.068,123 L340.604,123 L340.604,107.592 L335.708,107.592 C332.252,107.592 330.812,107.016 329.66,104.856 L321.308,89.016 C318.716,84.264 316.124,83.256 316.124,83.256 L316.124,82.968 C316.124,82.968 318.428,81.816 321.596,77.208 L340.172,49.56 L319.868,49.56 L304.892,72.744 C303.308,75.048 300.284,75.48 297.98,75.48 L292.508,75.48 L292.508,29.112 C292.508,22.344 289.484,20.76 282.716,20.76 L265.292,20.76 L265.292,36.312 L271.052,36.312 C273.068,36.312 274.22,37.32 274.22,39.48 L274.22,123 Z M353.132,113.208 C353.132,120.12 356.012,123 362.924,123 L380.204,123 L380.204,107.592 L374.588,107.592 C372.572,107.592 371.42,106.44 371.42,104.424 L371.42,30.552 C371.42,23.784 368.396,20.76 361.628,20.76 L344.204,20.76 L344.204,36.312 L349.964,36.312 C351.98,36.312 353.132,37.32 353.132,39.48 L353.132,113.208 Z M388.268,101.832 C388.268,116.52 400.22,124.728 413.324,124.728 C429.884,124.728 435.5,111.768 435.5,111.768 L435.788,111.768 C435.788,111.768 435.644,113.064 435.644,114.936 C435.644,119.256 438.236,123 445.004,123 L461.42,123 L461.42,107.592 L455.66,107.592 C453.644,107.592 452.492,106.44 452.492,104.424 L452.492,77.064 C452.492,60.648 445.292,47.832 420.812,47.832 C413.18,47.832 393.884,49.272 393.884,62.952 L393.884,70.728 L410.876,70.728 L410.876,66.84 C410.876,62.808 417.356,61.944 420.668,61.944 C430.028,61.944 434.204,65.832 434.204,76.344 L434.204,76.92 L431.9,76.92 C419.948,76.92 388.268,78.792 388.268,101.832 L388.268,101.832 Z M406.7,100.968 C406.7,90.744 421.82,89.448 431.324,89.448 L434.492,89.448 L434.492,91.176 C434.492,100.104 427.58,110.472 417.788,110.472 C410.3,110.472 406.7,105.864 406.7,100.968 L406.7,100.968 Z M475.532,123 L492.812,123 L492.812,119.256 C492.812,116.376 492.524,114.36 492.524,114.36 L492.812,114.36 C492.812,114.36 499.436,124.728 514.7,124.728 C534.14,124.728 548.396,109.608 548.396,86.28 C548.396,63.528 535.724,47.832 515.852,47.832 C500.3,47.832 493.82,58.056 493.82,58.056 L493.532,58.056 C493.532,58.056 493.82,55.464 493.82,51.864 L493.82,30.552 C493.82,23.784 490.796,20.76 484.028,20.76 L466.604,20.76 L466.604,36.312 L472.364,36.312 C474.38,36.312 475.532,37.32 475.532,39.48 L475.532,123 Z M493.244,86.712 C493.244,70.44 502.172,63.528 511.676,63.528 C522.476,63.528 529.964,72.6 529.964,86.568 C529.964,101.112 521.468,109.32 511.532,109.32 C499.292,109.32 493.244,98.088 493.244,86.712 L493.244,86.712 Z" id="hacklab/" fill="#000000"></path>
            <polygon id="Path" stroke="#979797" fill="#D0011B" points="553.004 129.048 568.556 129.048 605.276 15.576 589.58 15.576"></polygon>
        </g>
    </g>
</svg>