<?xml version="1.0" encoding="UTF-8" standalone="no"?>
<svg
   xmlns:dc="http://purl.org/dc/elements/1.1/"
   xmlns:cc="http://creativecommons.org/ns#"
   xmlns:rdf="http://www.w3.org/1999/02/22-rdf-syntax-ns#"
   xmlns:svg="http://www.w3.org/2000/svg"
   xmlns="http://www.w3.org/2000/svg"
   viewBox="0 0 137.64 31.52"
   height="31.52"
   width="137.64"
   xml:space="preserve"
   id="svg2"
   version="1.1"><metadata
     id="metadata8"><rdf:RDF><cc:Work
         rdf:about=""><dc:format>image/svg+xml</dc:format><dc:type
           rdf:resource="http://purl.org/dc/dcmitype/StillImage" /><dc:title></dc:title></cc:Work></rdf:RDF></metadata><defs
     id="defs6" /><g
     transform="matrix(1.3333333,0,0,-1.3333333,0,31.52)"
     id="g10"><g
       transform="scale(0.1)"
       id="g12"><path
         id="path14"
         style="fill:#231f20;fill-opacity:1;fill-rule:nonzero;stroke:none"
         d="M 140.375,0.332031 H 120.953 V 130.238 h 19.422 V 0.332031" /><path
         id="path16"
         style="fill:#231f20;fill-opacity:1;fill-rule:nonzero;stroke:none"
         d="m 200.559,16.6797 v 37.0312 l -9.547,6.3086 H 175.738 V 16.6797 Z m -0.5,65.7422 V 113.891 H 175.738 V 75.7813 H 190.68 Z M 220.063,12.207 c 0,-7.91012 -3.958,-11.874969 -11.872,-11.874969 H 156.313 V 130.238 h 51.546 c 7.692,0 11.539,-3.984 11.539,-11.953 V 84.8438 c 0,-4.4336 -1.386,-7.8711 -4.148,-10.293 -0.391,-0.332 -3.766,-2.461 -10.129,-6.4063 6.582,-4.0234 10.07,-6.25 10.461,-6.6406 2.988,-2.5976 4.481,-6.1523 4.481,-10.7031 V 12.207" /><path
         id="path18"
         style="fill:#231f20;fill-opacity:1;fill-rule:nonzero;stroke:none"
         d="M 289.211,0.332031 H 235.336 V 130.238 h 53.375 V 113.063 H 254.762 V 75.1172 H 283.98 V 58.2813 H 254.762 V 17.5195 h 34.449 V 0.332031" /><path
         id="path20"
         style="fill:#231f20;fill-opacity:1;fill-rule:nonzero;stroke:none"
         d="M 368.98,0.332031 H 348.727 L 327.309,60.6836 v 11.6992 h 19.093 V 113.559 H 321.914 V 0.332031 H 302.488 V 130.238 h 51.551 c 7.801,0 11.703,-3.984 11.703,-11.953 V 71.0547 c 0,-5.4688 -1.855,-9.0234 -5.562,-10.625 -1.992,-0.8203 -6.2,-1.25 -12.617,-1.25 L 368.98,0.332031" /><path
         id="path22"
         style="fill:#231f20;fill-opacity:1;fill-rule:nonzero;stroke:none"
         d="m 435.469,9.55078 c 0,-2.71484 -0.891,-4.92187 -2.656,-6.64062 -1.774,-1.71875 -4.012,-2.578129 -6.723,-2.578129 h -33.453 c -2.711,0 -4.926,0.859379 -6.641,2.578129 -1.715,1.71875 -2.574,3.92578 -2.574,6.64062 V 121.031 c 0,2.715 0.859,4.922 2.574,6.641 1.715,1.719 3.93,2.566 6.641,2.566 h 33.453 c 2.711,0 4.949,-0.847 6.723,-2.566 1.765,-1.719 2.656,-3.926 2.656,-6.641 V 90.8164 H 423.848 V 120.035 H 394.961 V 10.5469 h 28.887 V 42.5 h 11.621 V 9.55078" /><path
         id="path24"
         style="fill:#231f20;fill-opacity:1;fill-rule:nonzero;stroke:none"
         d="m 504.75,9.55078 c 0,-2.71484 -0.871,-4.92187 -2.617,-6.64062 -1.742,-1.71875 -3.969,-2.578129 -6.68,-2.578129 h -35.359 c -2.711,0 -4.926,0.859379 -6.641,2.578129 -1.715,1.71875 -2.574,3.92578 -2.574,6.64062 V 130.238 h 11.539 V 10.5469 h 30.797 V 130.238 H 504.75 V 9.55078" /><path
         id="path26"
         style="fill:#231f20;fill-opacity:1;fill-rule:nonzero;stroke:none"
         d="M 562.246,0.332031 H 520.742 V 130.238 h 11.543 V 10.5469 h 29.961 V 0.332031" /><path
         id="path28"
         style="fill:#231f20;fill-opacity:1;fill-rule:nonzero;stroke:none"
         d="M 618.008,120.035 H 597.91 V 0.332031 H 586.367 V 120.035 h -20.254 v 10.203 h 51.895 v -10.203" /><path
         id="path30"
         style="fill:#231f20;fill-opacity:1;fill-rule:nonzero;stroke:none"
         d="m 680.645,9.55078 c 0,-2.71484 -0.879,-4.92187 -2.618,-6.64062 -1.738,-1.71875 -3.964,-2.578129 -6.679,-2.578129 h -35.352 c -2.715,0 -4.941,0.859379 -6.641,2.578129 -1.718,1.71875 -2.578,3.92578 -2.578,6.64062 V 130.238 H 638.32 V 10.5469 h 30.782 V 130.238 h 11.543 V 9.55078" /><path
         id="path32"
         style="fill:#231f20;fill-opacity:1;fill-rule:nonzero;stroke:none"
         d="m 751.914,0.332031 h -12.109 l -24.16,69.570269 1.582,2.3243 h 20.586 V 120.035 H 708.184 V 0.332031 H 696.641 V 130.238 h 43.496 c 2.715,0 4.922,-0.847 6.64,-2.566 1.719,-1.719 2.578,-3.926 2.578,-6.641 V 71.7188 c 0,-6.25 -4.218,-9.375 -12.617,-9.375 -0.84,0 -2.05,0.039 -3.652,0.1171 -1.621,0.0977 -2.773,0.1368 -3.496,0.1368 7.48,-20.7032 14.922,-41.4454 22.324,-62.265669" /><path
         id="path34"
         style="fill:#231f20;fill-opacity:1;fill-rule:nonzero;stroke:none"
         d="M 799.297,39.4336 787.91,109.828 776.465,39.4336 Z m 17.5,-39.101569 H 805.352 L 800.781,29.2188 h -25.82 L 770.41,0.332031 H 759.277 V 0.664063 L 782.441,130.57 h 11.368 L 816.797,0.332031" /><path
         id="path36"
         style="fill:#ee203e;fill-opacity:1;fill-rule:nonzero;stroke:none"
         d="M 878.359,130.238 855.879,0 H 845 l -22.5,130.238 h 11.465 l 16.094,-103.4216 0.507,-8.4766 c 0.039,1.9532 0.235,4.7657 0.567,8.4766 l 16.113,103.4216 h 11.113" /><path
         id="path38"
         style="fill:#ee203e;fill-opacity:1;fill-rule:nonzero;stroke:none"
         d="M 901.406,0.332031 H 889.883 V 130.238 h 11.523 V 0.332031" /><path
         id="path40"
         style="fill:#ee203e;fill-opacity:1;fill-rule:nonzero;stroke:none"
         d="M 969.043,130.238 946.543,0 h -10.879 l -22.5,130.238 h 11.465 l 16.094,-103.4216 0.507,-8.4766 c 0.059,1.9532 0.254,4.7657 0.586,8.4766 L 957.91,130.238 h 11.133" /><path
         id="path42"
         style="fill:#ee203e;fill-opacity:1;fill-rule:nonzero;stroke:none"
         d="M 1014.75,39.4336 1003.38,109.828 991.914,39.4336 Z M 1032.27,0.332031 H 1020.8 L 1016.25,29.2188 H 990.43 L 985.859,0.332031 H 974.746 V 0.664063 L 997.891,130.57 h 11.389 L 1032.27,0.332031" /><path
         id="path44"
         style="fill:#ed0d92;fill-opacity:1;fill-rule:nonzero;stroke:none"
         d="M 0,130.348 H 106.012 V 0.351563" /><path
         id="path46"
         style="fill:#692579;fill-opacity:1;fill-rule:nonzero;stroke:none"
         d="M 106.012,234.672 V 148.219 H 0.00390625" /><path
         id="path48"
         style="fill:#ee203e;fill-opacity:1;fill-rule:nonzero;stroke:none"
         d="M 120.852,236.441 V 148.305 H 192.23" /></g></g></svg>